<svg width="512" height="512" viewBox="0 0 512 512" fill="none" xmlns="http://www.w3.org/2000/svg">
<path d="M14.745 0.00323447C14.189 0.0234244 13.6761 0.13923 13.2405 0.359814C11.4984 1.24235 11.681 3.45922 13.6515 5.33027L41.2119 31.498L5.82055 34.6211C3.08469 34.8624 0.519041 36.5599 0.0679991 38.4269C-0.383043 40.2938 1.45673 41.6024 4.19262 41.361L45.5122 37.7152C45.7015 37.6996 45.8891 37.6729 46.0762 37.6425L53.3966 74.6413C53.0191 74.8518 52.6425 75.0668 52.267 75.2864C40.7179 82.7056 30.9289 94.0422 25.0532 106.802C19.1776 119.562 17.6967 132.701 20.9364 143.327C21.8199 146.108 23.0191 148.673 24.5143 150.98L12.2083 171.691L35.0121 160.717C43.2922 165.08 53.8926 165.303 64.845 161.344C66.5309 170.374 71.1055 179.725 78.1791 188.601C85.2528 197.476 94.6161 205.613 105.472 212.318C118.067 220.037 132.175 225.542 146.202 228.21C195.54 316.229 327.727 506.581 347.041 511.876C370.07 518.19 306.998 281.347 271.955 229.92C259.957 212.312 237.893 196.851 214.545 185.936C213.82 181.298 212.318 176.543 210.074 171.782C301.443 215.779 462.952 285.252 472.706 282.053C484.998 278.021 336.169 132.21 289.639 100.768C378.459 67.8502 477.918 27.5983 481.853 20.3517C488.696 7.75158 254.422 6.87752 221.549 19.3805C198.085 28.3047 160.014 88.6122 149.595 122.452C135.087 117.236 120.278 114.987 106.974 115.978C110.21 105.761 110.579 95.7589 108.029 87.3782C105.122 77.9117 98.6597 71.103 89.7899 68.1618C80.92 65.2206 70.217 66.3373 59.5824 71.3134L52.6007 36.0294C52.3844 34.9359 51.9142 33.8993 51.3015 33.039C51.2724 32.8569 51.2185 32.6837 51.1413 32.5204C50.9065 31.8231 50.4268 31.0898 49.703 30.4025L19.9419 2.14431C18.464 0.741016 16.413 -0.057535 14.745 0.00323447Z" fill="#895CF5"/>
</svg>
