<svg width="290" height="104" viewBox="0 0 290 104" fill="none" xmlns="http://www.w3.org/2000/svg">
<g clip-path="url(#clip0_8544_2843)">
<path d="M17.4975 26.0003C17.4411 26.0024 17.389 26.0141 17.3447 26.0365C17.1678 26.1262 17.1863 26.3513 17.3865 26.5414L20.1856 29.199L16.5911 29.5162C16.3133 29.5407 16.0527 29.7131 16.0069 29.9027C15.9611 30.0923 16.1479 30.2252 16.4258 30.2007L20.6223 29.8304C20.6416 29.8289 20.6606 29.8261 20.6796 29.8231L21.4231 33.5808C21.3847 33.6021 21.3465 33.624 21.3084 33.6463C20.1354 34.3998 19.1412 35.5512 18.5445 36.8471C17.9477 38.1431 17.7973 39.4774 18.1263 40.5567C18.2161 40.8391 18.3379 41.0996 18.4897 41.3339L17.2399 43.4373L19.5559 42.3228C20.3969 42.7659 21.4735 42.7886 22.5858 42.3865C22.757 43.3037 23.2216 44.2534 23.9401 45.1548C24.6585 46.0562 25.6094 46.8826 26.712 47.5636C27.9912 48.3476 29.424 48.9066 30.8487 49.1776C35.8595 58.117 49.2847 77.4496 51.2463 77.9874C53.5852 78.6287 47.1795 54.5743 43.6205 49.3512C42.4019 47.5629 40.161 45.9927 37.7898 44.8842C37.7161 44.4131 37.5635 43.9302 37.3357 43.4466C46.6153 47.915 63.0186 54.9709 64.0092 54.646C65.2576 54.2365 50.1422 39.4276 45.4165 36.2342C54.4373 32.891 64.5385 28.8029 64.9382 28.067C65.6332 26.7873 41.8397 26.6985 38.501 27.9683C36.118 28.8747 32.2514 34.9997 31.1933 38.4365C29.7198 37.9068 28.2158 37.6783 26.8646 37.7791C27.1932 36.7414 27.2307 35.7255 26.9717 34.8743C26.6765 33.9129 26.0201 33.2214 25.1193 32.9227C24.2184 32.624 23.1314 32.7374 22.0513 33.2428L21.3423 29.6592C21.3203 29.5482 21.2725 29.4429 21.2103 29.3555C21.2074 29.337 21.2019 29.3194 21.194 29.3028C21.1702 29.232 21.1215 29.1576 21.048 29.0878L18.0254 26.2178C17.8752 26.0753 17.6669 25.9942 17.4975 26.0003Z" fill="#E0E1DD" style="fill:#E0E1DD;fill:color(display-p3 0.8784 0.8824 0.8667);fill-opacity:1;"/>
</g>
<path d="M106.321 36L97.9734 48.8927C97.6333 49.4493 97.2623 49.9285 96.8604 50.3304C96.4585 50.7323 96.0565 51.0725 95.6546 51.3507V51.4899C96.0875 51.7372 96.5512 52.1082 97.0459 52.6029C97.5405 53.0975 97.9425 53.6232 98.2517 54.1797L106.878 68H98.9473L89.0691 51.258L98.6691 36H106.321ZM88.0024 36V45.0435C88.0024 46.0946 87.9251 47.1459 87.7705 48.1971C87.6159 49.2174 87.3686 50.2222 87.0285 51.2116C87.2759 52.17 87.4923 53.1594 87.6778 54.1797C87.8942 55.1691 88.0024 56.0966 88.0024 56.9623V68H80.9531V36H88.0024ZM91.6198 48.8927V53.8087H85.8691V48.8927H91.6198Z" fill="#E0E1DD" style="fill:#E0E1DD;fill:color(display-p3 0.8784 0.8824 0.8667);fill-opacity:1;"/>
<path d="M124.159 36C126.596 36 128.661 36.2674 130.355 36.8022C132.048 37.3073 133.4 38.169 134.41 39.3872C135.449 40.5757 136.208 42.2099 136.683 44.2897C137.158 46.3398 137.396 48.9099 137.396 52C137.396 55.0901 137.158 57.6751 136.683 59.7549C136.208 61.805 135.449 63.4392 134.41 64.6574C133.4 65.8458 132.048 66.7075 130.355 67.2423C128.661 67.7475 126.596 68 124.159 68C121.723 68 119.658 67.7475 117.964 67.2423C116.27 66.7075 114.904 65.8458 113.864 64.6574C112.824 63.4392 112.066 61.805 111.591 59.7549C111.116 57.6751 110.878 55.0901 110.878 52C110.878 48.9099 111.116 46.3398 111.591 44.2897C112.066 42.2099 112.824 40.5757 113.864 39.3872C114.904 38.169 116.27 37.3073 117.964 36.8022C119.658 36.2674 121.723 36 124.159 36ZM124.159 41.3928C122.585 41.3928 121.351 41.7047 120.46 42.3287C119.598 42.9527 118.975 44.0372 118.588 45.5822C118.232 47.0975 118.053 49.2368 118.053 52C118.053 54.7336 118.232 56.8728 118.588 58.4178C118.975 59.9628 119.598 61.0474 120.46 61.6713C121.351 62.2953 122.585 62.6072 124.159 62.6072C125.705 62.6072 126.908 62.2953 127.769 61.6713C128.661 61.0474 129.285 59.9628 129.641 58.4178C130.027 56.8728 130.221 54.7336 130.221 52C130.221 49.2368 130.027 47.0975 129.641 45.5822C129.285 44.0372 128.661 42.9527 127.769 42.3287C126.908 41.7047 125.705 41.3928 124.159 41.3928Z" fill="#E0E1DD" style="fill:#E0E1DD;fill:color(display-p3 0.8784 0.8824 0.8667);fill-opacity:1;"/>
<path d="M153.555 36C156.329 36 158.569 36.2895 160.275 36.8686C162.012 37.4171 163.278 38.3771 164.07 39.7486C164.893 41.0896 165.304 42.9638 165.304 45.3714C165.304 46.8343 165.106 48.1296 164.71 49.2571C164.344 50.3543 163.719 51.2381 162.836 51.9086C161.952 52.579 160.747 53.0057 159.224 53.1886V53.4171C159.772 53.5086 160.337 53.7219 160.915 54.0571C161.525 54.3924 162.088 54.8953 162.607 55.5657C163.125 56.2057 163.506 57.0743 163.75 58.1714L166.493 68H159.132L156.71 58.4C156.436 57.3638 156.024 56.6476 155.475 56.2514C154.957 55.8553 154.226 55.6571 153.281 55.6571C151.209 55.6571 149.456 55.6571 148.024 55.6571C146.622 55.6267 145.433 55.5962 144.458 55.5657C143.513 55.5353 142.66 55.5047 141.898 55.4743L142.036 50.4H153.418C154.637 50.4 155.597 50.2781 156.298 50.0343C157.029 49.76 157.532 49.2876 157.807 48.6171C158.112 47.9467 158.264 47.0171 158.264 45.8286C158.264 44.6096 158.112 43.68 157.807 43.04C157.532 42.3696 157.029 41.9124 156.298 41.6686C155.597 41.3943 154.637 41.2571 153.418 41.2571C150.554 41.2571 148.13 41.2724 146.15 41.3029C144.169 41.3333 142.812 41.379 142.081 41.44L141.396 36.4571C142.675 36.3048 143.879 36.1981 145.007 36.1371C146.135 36.0762 147.369 36.0457 148.71 36.0457C150.051 36.0152 151.666 36 153.555 36ZM148.298 36.4571V68H141.396V36.4571H148.298Z" fill="#E0E1DD" style="fill:#E0E1DD;fill:color(display-p3 0.8784 0.8824 0.8667);fill-opacity:1;"/>
<path d="M185.287 36V68H180.649V36H185.287ZM195.49 36V39.9884H170.493V36H195.49Z" fill="#E0E1DD" style="fill:#E0E1DD;fill:color(display-p3 0.8784 0.8824 0.8667);fill-opacity:1;"/>
<path d="M222.795 36V55.3001C222.795 58.3651 222.416 60.8383 221.657 62.7198C220.929 64.5709 219.73 65.9213 218.061 66.771C216.392 67.5903 214.161 68 211.37 68C208.456 68 206.135 67.5903 204.405 66.771C202.676 65.9213 201.416 64.5709 200.627 62.7198C199.868 60.8383 199.489 58.3651 199.489 55.3001V36H204.041V55.3001C204.041 57.4851 204.254 59.23 204.679 60.5348C205.134 61.8094 205.877 62.7198 206.908 63.266C207.971 63.7819 209.382 64.0398 211.142 64.0398C212.902 64.0398 214.283 63.7819 215.284 63.266C216.316 62.7198 217.059 61.8094 217.515 60.5348C218 59.23 218.243 57.4851 218.243 55.3001V36H222.795Z" fill="#E0E1DD" style="fill:#E0E1DD;fill:color(display-p3 0.8784 0.8824 0.8667);fill-opacity:1;"/>
<path d="M237.919 36C240.422 36 242.436 36.2747 243.962 36.824C245.519 37.3429 246.648 38.2737 247.35 39.6166C248.052 40.9289 248.403 42.7754 248.403 45.1559C248.403 46.8345 248.204 48.2385 247.808 49.3677C247.411 50.4969 246.785 51.382 245.93 52.0229C245.107 52.6638 243.978 53.0758 242.543 53.2589V53.4878C243.062 53.6099 243.581 53.8541 244.099 54.2203C244.619 54.5866 245.107 55.0901 245.565 55.731C246.022 56.3415 246.358 57.1197 246.571 58.0658L249.547 68H244.695L241.948 58.1574C241.581 56.9976 241.078 56.1736 240.437 55.6853C239.797 55.197 238.957 54.9528 237.919 54.9528C235.996 54.9528 234.349 54.9528 232.975 54.9528C231.602 54.9223 230.442 54.8917 229.496 54.8612C228.581 54.8307 227.832 54.8155 227.253 54.8155L227.39 51.1531H237.828C239.324 51.1226 240.498 50.9547 241.352 50.6495C242.207 50.3138 242.818 49.7339 243.184 48.9099C243.581 48.0858 243.779 46.9261 243.779 45.4306C243.779 43.9352 243.581 42.7907 243.184 41.9971C242.818 41.1731 242.207 40.6085 241.352 40.3033C240.498 39.9675 239.324 39.7997 237.828 39.7997C235.264 39.7997 233.051 39.815 231.19 39.8455C229.328 39.876 228.076 39.8913 227.436 39.8913L226.795 36.412C227.955 36.2899 229.054 36.1984 230.091 36.1373C231.129 36.0763 232.258 36.0458 233.479 36.0458C234.729 36.0153 236.21 36 237.919 36ZM231.327 36.412V68H226.795V36.412H231.327Z" fill="#E0E1DD" style="fill:#E0E1DD;fill:color(display-p3 0.8784 0.8824 0.8667);fill-opacity:1;"/>
<path d="M259.836 36C261.377 36 262.949 36 264.552 36C266.155 36 267.728 36.0308 269.269 36.0925C270.841 36.1233 272.337 36.185 273.755 36.2775L273.569 39.8382H260.853C259.928 39.8382 259.25 40.0694 258.818 40.5318C258.387 40.9942 258.171 41.7341 258.171 42.7515V61.2486C258.171 62.2659 258.387 63.0212 258.818 63.5145C259.25 63.9769 259.928 64.2081 260.853 64.2081H273.569L273.755 67.7225C272.337 67.815 270.841 67.8767 269.269 67.9075C267.728 67.9383 266.155 67.9538 264.552 67.9538C262.949 67.9846 261.377 68 259.836 68C257.925 68 256.398 67.4913 255.257 66.474C254.147 65.4258 253.578 64.0386 253.547 62.3121V41.6879C253.578 39.9306 254.147 38.5434 255.257 37.526C256.398 36.5087 257.925 36 259.836 36ZM254.379 49.3642H271.766V52.9249H254.379V49.3642Z" fill="#E0E1DD" style="fill:#E0E1DD;fill:color(display-p3 0.8784 0.8824 0.8667);fill-opacity:1;"/>
<defs>
<clipPath id="clip0_8544_2843">
<rect width="48.9531" height="56" fill="white" style="fill:white;fill-opacity:1;" transform="translate(16 24)"/>
</clipPath>
</defs>
</svg>
