<svg width="81" height="104" viewBox="0 0 81 104" fill="none" xmlns="http://www.w3.org/2000/svg">
<g clip-path="url(#clip0_8547_2907)">
<path d="M17.4975 26.0003C17.4411 26.0024 17.389 26.0141 17.3447 26.0365C17.1678 26.1262 17.1863 26.3513 17.3865 26.5414L20.1856 29.199L16.5911 29.5162C16.3133 29.5407 16.0527 29.7131 16.0069 29.9027C15.9611 30.0923 16.1479 30.2252 16.4258 30.2007L20.6223 29.8304C20.6416 29.8289 20.6606 29.8261 20.6796 29.8231L21.4231 33.5808C21.3847 33.6021 21.3465 33.624 21.3084 33.6463C20.1354 34.3998 19.1412 35.5512 18.5445 36.8471C17.9477 38.1431 17.7973 39.4774 18.1263 40.5567C18.2161 40.8391 18.3379 41.0996 18.4897 41.3339L17.2399 43.4373L19.5559 42.3228C20.3969 42.7659 21.4735 42.7886 22.5858 42.3865C22.757 43.3037 23.2216 44.2534 23.9401 45.1548C24.6585 46.0562 25.6094 46.8826 26.712 47.5636C27.9912 48.3476 29.424 48.9066 30.8487 49.1776C35.8595 58.117 49.2847 77.4496 51.2463 77.9874C53.5852 78.6287 47.1795 54.5743 43.6205 49.3512C42.4019 47.5629 40.161 45.9927 37.7898 44.8842C37.7161 44.4131 37.5635 43.9302 37.3357 43.4466C46.6153 47.915 63.0186 54.9709 64.0092 54.646C65.2576 54.2365 50.1422 39.4276 45.4165 36.2342C54.4373 32.891 64.5385 28.8029 64.9382 28.067C65.6332 26.7873 41.8397 26.6985 38.501 27.9683C36.118 28.8747 32.2514 34.9997 31.1933 38.4365C29.7198 37.9068 28.2158 37.6783 26.8646 37.7791C27.1932 36.7414 27.2307 35.7255 26.9717 34.8743C26.6765 33.9129 26.0201 33.2214 25.1193 32.9227C24.2184 32.624 23.1314 32.7374 22.0513 33.2428L21.3423 29.6592C21.3203 29.5482 21.2725 29.4429 21.2103 29.3555C21.2074 29.337 21.2019 29.3194 21.194 29.3028C21.1702 29.232 21.1215 29.1576 21.048 29.0878L18.0254 26.2178C17.8752 26.0753 17.6669 25.9942 17.4975 26.0003Z" fill="#E0E1DD" style="fill:#E0E1DD;fill:color(display-p3 0.8784 0.8824 0.8667);fill-opacity:1;"/>
</g>
<defs>
<clipPath id="clip0_8547_2907">
<rect width="48.9531" height="56" fill="white" style="fill:white;fill-opacity:1;" transform="translate(16 24)"/>
</clipPath>
</defs>
</svg>
